<?xml version="1.0" encoding="UTF-8"?>
<svg xmlns="http://www.w3.org/2000/svg" xmlns:xlink="http://www.w3.org/1999/xlink" width="15px" height="15px" viewBox="0 0 80 80" version="1.1">
<g id="surface1">
<path style=" stroke:none;fill-rule:nonzero;fill:rgb(12.156863%,81.176471%,75.686275%);fill-opacity:1;" d="M 78.40625 40 C 78.40625 61.210938 61.210938 78.40625 40 78.40625 C 18.789062 78.40625 1.59375 61.210938 1.59375 40 C 1.59375 18.789062 18.789062 1.59375 40 1.59375 C 61.210938 1.59375 78.40625 18.789062 78.40625 40 Z M 78.40625 40 "/>
<path style=" stroke:none;fill-rule:nonzero;fill:rgb(94.901961%,94.901961%,94.901961%);fill-opacity:1;" d="M 30.597656 61.191406 L 58.804688 40 L 30.597656 18.808594 Z M 30.597656 61.191406 "/>
<path style=" stroke:none;fill-rule:nonzero;fill:rgb(30.196078%,30.196078%,30.196078%);fill-opacity:1;" d="M 40 80 C 29.316406 80 19.269531 75.839844 11.714844 68.285156 C 4.160156 60.730469 0 50.683594 0 40 C 0 29.316406 4.160156 19.269531 11.714844 11.714844 C 19.269531 4.160156 29.316406 0 40 0 C 50.683594 0 60.730469 4.160156 68.285156 11.714844 C 75.839844 19.269531 80 29.316406 80 40 C 80 50.683594 75.839844 60.730469 68.285156 68.285156 C 60.730469 75.839844 50.683594 80 40 80 Z M 40 3.1875 C 19.703125 3.1875 3.1875 19.703125 3.1875 40 C 3.1875 60.296875 19.703125 76.8125 40 76.8125 C 60.296875 76.8125 76.8125 60.296875 76.8125 40 C 76.8125 19.703125 60.296875 3.1875 40 3.1875 Z M 40 3.1875 "/>
<path style=" stroke:none;fill-rule:nonzero;fill:rgb(30.196078%,30.196078%,30.196078%);fill-opacity:1;" d="M 30.597656 62.785156 C 30.355469 62.785156 30.109375 62.730469 29.886719 62.617188 C 29.34375 62.347656 29.003906 61.796875 29.003906 61.191406 L 29.003906 18.808594 C 29.003906 18.203125 29.34375 17.652344 29.886719 17.382812 C 30.425781 17.113281 31.070312 17.171875 31.554688 17.535156 L 59.761719 38.726562 C 60.164062 39.027344 60.398438 39.5 60.398438 40 C 60.398438 40.5 60.164062 40.972656 59.761719 41.273438 L 31.554688 62.464844 C 31.273438 62.675781 30.9375 62.785156 30.597656 62.785156 Z M 32.191406 22 L 32.191406 58 L 56.152344 40 Z M 32.191406 22 "/>
<path style=" stroke:none;fill-rule:nonzero;fill:rgb(30.196078%,30.196078%,30.196078%);fill-opacity:1;" d="M 40 73.945312 C 39.121094 73.945312 38.40625 73.230469 38.40625 72.351562 C 38.40625 71.46875 39.121094 70.757812 40 70.757812 C 48.253906 70.757812 56 67.53125 61.816406 61.679688 C 62.4375 61.054688 63.445312 61.050781 64.070312 61.671875 C 64.695312 62.292969 64.699219 63.300781 64.078125 63.925781 C 57.660156 70.386719 49.105469 73.945312 40 73.945312 Z M 40 73.945312 "/>
<path style=" stroke:none;fill-rule:nonzero;fill:rgb(30.196078%,30.196078%,30.196078%);fill-opacity:1;" d="M 67.25 59.035156 C 66.953125 59.035156 66.65625 58.953125 66.390625 58.78125 C 65.648438 58.308594 65.433594 57.320312 65.910156 56.582031 C 66.144531 56.210938 66.378906 55.832031 66.597656 55.453125 C 67.042969 54.691406 68.015625 54.433594 68.777344 54.878906 C 69.539062 55.320312 69.796875 56.296875 69.351562 57.054688 C 69.109375 57.476562 68.851562 57.894531 68.59375 58.300781 C 68.289062 58.777344 67.773438 59.035156 67.25 59.035156 Z M 67.25 59.035156 "/>
</g>
</svg>
